<?xml version="1.0" encoding="UTF-8" standalone="no"?>
<!-- Created with Inkscape (http://www.inkscape.org/) -->

<svg
   xmlns:dc="http://purl.org/dc/elements/1.1/"
   xmlns:cc="http://creativecommons.org/ns#"
   xmlns:rdf="http://www.w3.org/1999/02/22-rdf-syntax-ns#"
   xmlns:svg="http://www.w3.org/2000/svg"
   xmlns="http://www.w3.org/2000/svg"
   xmlns:sodipodi="http://sodipodi.sourceforge.net/DTD/sodipodi-0.dtd"
   xmlns:inkscape="http://www.inkscape.org/namespaces/inkscape"
   version="1.1"
   width="367.35001"
   height="367.35001"
   id="svg2"
   xml:space="preserve"
   sodipodi:docname="barista-moka.svg"
   inkscape:version="0.92.2 5c3e80d, 2017-08-06"
   inkscape:export-filename="barista-moka.png"
   inkscape:export-xdpi="267.60001"
   inkscape:export-ydpi="267.60001"><metadata
     id="metadata34"><rdf:RDF><cc:Work
         rdf:about=""><dc:format>image/svg+xml</dc:format><dc:type
           rdf:resource="http://purl.org/dc/dcmitype/StillImage" /><dc:title></dc:title></cc:Work></rdf:RDF></metadata><sodipodi:namedview
     pagecolor="#ffffff"
     bordercolor="#666666"
     borderopacity="1"
     objecttolerance="10"
     gridtolerance="10"
     guidetolerance="10"
     inkscape:pageopacity="0"
     inkscape:pageshadow="2"
     inkscape:window-width="1440"
     inkscape:window-height="827"
     id="namedview32"
     showgrid="false"
     inkscape:snap-global="false"
     inkscape:zoom="1.7013747"
     inkscape:cx="183.675"
     inkscape:cy="183.675"
     inkscape:window-x="0"
     inkscape:window-y="24"
     inkscape:window-maximized="1"
     inkscape:current-layer="svg2" /><defs
     id="defs6"><clipPath
       clipPathUnits="userSpaceOnUse"
       id="clipPath2578"><circle
         r="141.60001"
         cy="-214.93604"
         cx="129.47447"
         id="circle2580"
         style="opacity:0.1;fill:#00ff00;fill-opacity:1;fill-rule:nonzero;stroke:none;stroke-width:10;stroke-linecap:butt;stroke-linejoin:round;stroke-miterlimit:4;stroke-dasharray:none;stroke-dashoffset:0;stroke-opacity:1"
         transform="matrix(0.97986919,-0.19964058,-0.19964058,-0.97986919,0,0)" /></clipPath></defs><circle
     style="opacity:1;fill:#ffffff;fill-opacity:1;fill-rule:nonzero;stroke:none;stroke-width:10;stroke-linecap:butt;stroke-linejoin:round;stroke-miterlimit:4;stroke-dasharray:none;stroke-dashoffset:0;stroke-opacity:1"
     id="path905"
     cx="183.67502"
     cy="183.675"
     r="177" /><path
     sodipodi:nodetypes="ccscccccccccccccccccccccccccccccccsssccccc"
     inkscape:connector-curvature="0"
     id="path5287-3"
     d="m 143.35448,80.850979 7.25261,20.391151 -47.96252,23.98671 c -6.433983,3.21771 -12.696695,3.13418 -17.652793,4.76071 l 0.460234,1.98216 c -10.569029,2.10207 -16.726242,5.88762 -17.024735,12.25646 l 7.494899,0.11312 37.262005,38.87942 12.62888,35.15064 6.59747,3.75856 4.76072,18.89418 3.9339,3.2078 1.173,4.86371 -6.38955,5.31113 1.71118,96.05634 133.50716,-27.20102 -33.82905,-87.32572 -9.64335,-3.50244 -0.9982,-4.89935 4.88623,-4.64036 -3.50353,-19.87928 5.44027,-6.39336 -4.23759,-68.20565 35.45515,-15.60674 7.98453,9.67212 -5.62801,12.62779 3.07243,16.86904 -5.07682,19.80511 2.63811,12.94829 -3.75856,6.59742 -14.0629,4.32315 5.93356,13.917 24.27629,-7.86194 12.94829,-90.2956 -18.5839,-16.077861 c -9.72802,-8.41616 -18.46324,-8.81223 -26.48659,-2.98659 -4.40454,3.19802 -13.19487,4.67652 -15.60204,4.81893 l -18.90731,1.11864 -46.0905,-0.81486 -1.51075,-20.83206 -11.63613,-2.54972 z"
     style="opacity:1;fill:#231f20;fill-opacity:1;fill-rule:nonzero;stroke:none;stroke-width:1.88976395;stroke-linecap:butt;stroke-linejoin:round;stroke-miterlimit:4;stroke-dasharray:none;stroke-dashoffset:0;stroke-opacity:1" /><g
     id="g5563"
     transform="matrix(1.2248365,-0.24955073,-0.24955073,-1.2248365,21.831935,452.34504)"
     clip-path="url(#clipPath2578)"><path
       sodipodi:nodetypes="ccscccccccccccccccccccccccccccccccsssccccc"
       inkscape:connector-curvature="0"
       id="path2576"
       d="m 136.98768,222.99032 2.42857,-17.14285 -41.42858,-11.14286 c -5.557478,-1.49476 -10.453448,-0.42905 -14.59829,-0.91253 l 0.04414,-1.62731 c -8.620738,0.0402 -14.05195,-1.94389 -15.303124,-6.88872 l 5.857148,-1.2857 22.999998,-36.42861 4.285718,-29.5714 4.57144,-4.00002 0.71427,-15.571408 2.57144,-3.142872 0.14272,-3.999984 -5.857,-3.142872 L 89.416124,12.56177 H 198.41612 l -12.57142,73.857142 -7,4.285704 v 4.000008 l 4.57142,2.857152 0.42857,16.142844 5.2857,4.14284 7.57146,54.14289 30.28572,6.57141 4.71429,-8.85715 -6.4286,-9 -0.28573,-13.71427 -7.14282,-14.7143 V 121.7046 l -4.00001,-4.5714 -11.7143,-1.14288 2.42857,-11.85713 20.28573,2.28571 24.57144,68.71428 -12,15.57144 c -6.28158,8.15109 -13.06583,9.85668 -20.28573,6.57143 -3.96345,-1.80347 -11.09029,-1.55852 -13.00001,-1.2857 l -15.00001,2.14284 -35.99999,7.99999 2.14287,16.57144 -8.71428,3.85714 z"
       style="opacity:1;fill:#ed1c24;fill-opacity:1;fill-rule:nonzero;stroke:#ffffff;stroke-width:8.79999995;stroke-linecap:butt;stroke-linejoin:miter;stroke-miterlimit:4;stroke-dasharray:none;stroke-dashoffset:0;stroke-opacity:1" /><path
       style="opacity:1;fill:#ed1c24;fill-opacity:1;fill-rule:nonzero;stroke:none;stroke-width:1.51181114;stroke-linecap:butt;stroke-linejoin:round;stroke-miterlimit:4;stroke-dasharray:none;stroke-dashoffset:0;stroke-opacity:1"
       d="m 136.98768,222.99032 2.42857,-17.14285 -41.42858,-11.14286 c -5.557478,-1.49476 -10.453448,-0.42905 -14.59829,-0.91253 l 0.04414,-1.62731 c -8.620738,0.0402 -14.05195,-1.94389 -15.303124,-6.88872 l 5.857148,-1.2857 22.999998,-36.42861 4.285718,-29.5714 4.57144,-4.00002 0.71427,-15.571408 2.57144,-3.142872 0.14272,-3.999984 -5.857,-3.142872 L 89.416124,12.56177 H 198.41612 l -12.57142,73.857142 -7,4.285704 v 4.000008 l 4.57142,2.857152 0.42857,16.142844 5.2857,4.14284 7.57146,54.14289 30.28572,6.57141 4.71429,-8.85715 -6.4286,-9 -0.28573,-13.71427 -7.14282,-14.7143 V 121.7046 l -4.00001,-4.5714 -11.7143,-1.14288 2.42857,-11.85713 20.28573,2.28571 24.57144,68.71428 -12,15.57144 c -6.28158,8.15109 -13.06583,9.85668 -20.28573,6.57143 -3.96345,-1.80347 -11.09029,-1.55852 -13.00001,-1.2857 l -15.00001,2.14284 -35.99999,7.99999 2.14287,16.57144 -8.71428,3.85714 z"
       id="path5287"
       inkscape:connector-curvature="0"
       sodipodi:nodetypes="ccscccccccccccccccccccccccccccccccsssccccc" /></g><path
     style="opacity:1;fill:#ffffff;fill-opacity:1;fill-rule:nonzero;stroke:none;stroke-width:25;stroke-linecap:butt;stroke-linejoin:round;stroke-miterlimit:4;stroke-dasharray:none;stroke-dashoffset:0;stroke-opacity:1"
     d="M 183.30273,43.197266 A 141,141 0 0 0 42.302734,184.19727 a 141,141 0 0 0 140.999996,141 141,141 0 0 0 141,-141 141,141 0 0 0 -141,-141.000004 z m 0,8 a 133,133 0 0 1 133,133.000004 133,133 0 0 1 -133,133 133,133 0 0 1 -132.999996,-133 A 133,133 0 0 1 183.30273,51.197266 Z"
     id="path2537"
     inkscape:connector-curvature="0" /><ellipse
     style="opacity:1;fill:#ffffff;fill-opacity:1;fill-rule:nonzero;stroke:none;stroke-width:0.18897638;stroke-linecap:butt;stroke-linejoin:round;stroke-miterlimit:4;stroke-dasharray:none;stroke-dashoffset:0;stroke-opacity:1"
     id="path7388"
     cx="251.77219"
     cy="199.26526"
     rx="4.4677978"
     ry="6.8575501" /><path
     style="opacity:1;fill:none;fill-opacity:1;fill-rule:nonzero;stroke:#00ffff;stroke-width:0.5;stroke-linecap:butt;stroke-linejoin:round;stroke-miterlimit:4;stroke-dasharray:none;stroke-dashoffset:0;stroke-opacity:1"
     id="path881"
     transform="scale(-1)"
     sodipodi:type="arc"
     sodipodi:cx="-183.67502"
     sodipodi:cy="-183.675"
     sodipodi:rx="145"
     sodipodi:ry="145"
     sodipodi:start="0.48555602"
     sodipodi:end="2.8430067"
     d="M -55.434758,-116.00348 A 145,145 0 0 1 -197.21061,-39.308152 145,145 0 0 1 -322.25926,-141.02049"
     sodipodi:open="true" /><path
     id="path931"
     style="opacity:1;fill:none;fill-opacity:1;fill-rule:nonzero;stroke:#00ffff;stroke-width:0.5;stroke-linecap:butt;stroke-linejoin:round;stroke-miterlimit:4;stroke-dasharray:none;stroke-dashoffset:0;stroke-opacity:1"
     transform="scale(-1,1)"
     d="M -43.891608,283.18149 A 171.58363,171.58363 0 0 1 -212.168,352.87634 171.58363,171.58363 0 0 1 -348.33825,231.91362"
     sodipodi:type="arc"
     sodipodi:start="0.61864271"
     sodipodi:end="2.8566133"
     sodipodi:ry="171.58363"
     sodipodi:rx="171.58363"
     sodipodi:cy="183.675"
     sodipodi:cx="-183.67502"
     sodipodi:open="true" /><path
     inkscape:connector-curvature="0"
     d="m 183.67266,362.92267 c -98.753087,0 -179.2453169,-80.49109 -179.2453169,-179.24533 0,-98.754612 80.4921609,-179.2499994 179.2453269,-179.2499994 98.75457,0 179.24999,80.4954254 179.24999,179.2499994 0,98.75421 -80.4955,179.24533 -179.25,179.24533 z m 0,-40.74844 c 76.73348,0 138.50155,-61.76398 138.50155,-138.49689 0,-76.7334 -61.76815,-138.501549 -138.50154,-138.501549 -76.73157,0 -138.496889,61.768189 -138.496889,138.501549 0,76.73289 61.765259,138.49689 138.496879,138.49689 z"
     id="path20"
     style="color:#000000;font-style:normal;font-variant:normal;font-weight:normal;font-stretch:normal;font-size:medium;line-height:normal;font-family:'Bitstream Vera Sans';-inkscape-font-specification:'Bitstream Vera Sans';text-indent:0;text-align:start;text-decoration:none;text-decoration-line:none;letter-spacing:normal;word-spacing:normal;text-transform:none;writing-mode:lr-tb;direction:ltr;text-anchor:start;display:inline;overflow:visible;visibility:visible;fill:#231f20;fill-opacity:1;stroke:none;stroke-width:40.74795151;marker:none;enable-background:accumulate" /><g
     aria-label="ANTIFASCISTA"
     style="font-style:normal;font-variant:normal;font-weight:normal;font-stretch:normal;font-size:37.33333206px;line-height:25px;font-family:'Latin Modern Roman';-inkscape-font-specification:'Latin Modern Roman, Normal';text-align:start;letter-spacing:6px;word-spacing:0px;writing-mode:lr-tb;text-anchor:start;fill:#ffffff;fill-opacity:1;stroke:none;stroke-width:1px;stroke-linecap:butt;stroke-linejoin:miter;stroke-opacity:1"
     id="text937"><path
       d="m 62.055958,289.88964 4.700024,-7.82261 q 0.211956,-0.34337 0.796832,-1.09333 0.584877,-0.74996 1.479815,-1.78274 -1.145169,0.64798 -2.082802,1.14633 -0.923645,0.48665 -1.259565,0.62479 l -8.379602,3.24798 z m -18.685075,-6.52767 26.990215,-9.3192 4.184278,5.0081 -13.876362,25.01497 -4.160902,-4.98012 2.959747,-5.29965 -6.627055,-7.93182 -5.542778,2.20806 z"
       style="font-style:normal;font-variant:normal;font-weight:normal;font-stretch:normal;font-size:37.33333206px;font-family:'Futura Hv BT';-inkscape-font-specification:'Futura Hv BT';letter-spacing:6px;fill:#ffffff;fill-opacity:1"
       id="path4345" /><path
       d="m 67.090079,310.20313 16.599456,-20.89691 4.638999,3.68499 -0.41089,19.50862 q -0.0085,0.83133 -0.285815,2.14757 -0.251687,1.31331 -0.746948,2.99186 0.579985,-1.05252 1.234275,-2.02274 0.65429,-0.97021 1.742779,-2.3405 l 9.286171,-11.69028 4.267884,3.39019 -16.599461,20.8969 -4.38207,-3.48089 0.335375,-19.94109 q 0.0085,-0.83133 0.274477,-2.1333 0.277299,-1.31624 0.780964,-3.03468 -0.557309,1.02397 -1.222937,2.00846 -0.65429,0.97022 -1.765456,2.36906 l -9.478924,11.93293 z"
       style="font-style:normal;font-variant:normal;font-weight:normal;font-stretch:normal;font-size:37.33333206px;font-family:'Futura Hv BT';-inkscape-font-specification:'Futura Hv BT';letter-spacing:6px;fill:#ffffff;fill-opacity:1"
       id="path4347" /><path
       d="m 116.14754,317.36056 -10.20952,19.30512 -5.05994,-2.67595 10.20952,-19.30512 -5.76898,-3.05092 2.26689,-4.28645 16.63012,8.79484 -2.26689,4.28645 z"
       style="font-style:normal;font-variant:normal;font-weight:normal;font-stretch:normal;font-size:37.33333206px;font-family:'Futura Hv BT';-inkscape-font-specification:'Futura Hv BT';letter-spacing:6px;fill:#ffffff;fill-opacity:1"
       id="path4349" /><path
       d="m 120.90238,343.38922 9.35048,-24.99583 5.34405,1.99911 -9.35047,24.99583 z"
       style="font-style:normal;font-variant:normal;font-weight:normal;font-stretch:normal;font-size:37.33333206px;font-family:'Futura Hv BT';-inkscape-font-specification:'Futura Hv BT';letter-spacing:6px;fill:#ffffff;fill-opacity:1"
       id="path4351" /><path
       d="m 137.72747,349.13913 6.10179,-25.98058 15.29731,3.59272 -1.10032,4.68502 -9.74272,-2.28817 -1.25454,5.34163 9.74272,2.28818 -1.10865,4.72051 -9.74272,-2.28817 -2.63828,11.23341 z"
       style="font-style:normal;font-variant:normal;font-weight:normal;font-stretch:normal;font-size:37.33333206px;font-family:'Futura Hv BT';-inkscape-font-specification:'Futura Hv BT';letter-spacing:6px;fill:#ffffff;fill-opacity:1"
       id="path4353" /><path
       d="m 177.13659,345.01261 -2.45818,-8.78867 q -0.10402,-0.38988 -0.24747,-1.33007 -0.14345,-0.94018 -0.27952,-2.29997 -0.31547,1.27741 -0.59718,2.3012 -0.2806,1.00559 -0.4109,1.34463 l -3.39402,8.32152 z m -17.57719,9.09862 11.76231,-26.01859 6.51389,0.39799 8.65274,27.26595 -6.4775,-0.39577 -1.81949,-5.79102 -10.31669,-0.63034 -2.20167,5.54532 z"
       style="font-style:normal;font-variant:normal;font-weight:normal;font-stretch:normal;font-size:37.33333206px;font-family:'Futura Hv BT';-inkscape-font-specification:'Futura Hv BT';letter-spacing:6px;fill:#ffffff;fill-opacity:1"
       id="path4355" /><path
       d="m 193.2761,351.84761 2.75154,-3.92252 q 0.7625,1.40025 2.18048,2.10325 1.41596,0.68489 3.06446,0.49986 1.9927,-0.22365 3.04636,-1.29578 1.05366,-1.07213 0.87473,-2.66629 -0.21145,-1.884 -4.27946,-3.31681 -1.31706,-0.45752 -2.08438,-0.75661 -3.68148,-1.42116 -5.21518,-2.99167 -1.53573,-1.58862 -1.80411,-3.97986 -0.36802,-3.27889 1.98663,-5.67103 2.37074,-2.41229 6.51917,-2.8779 2.40935,-0.27042 4.24399,0.38582 1.85073,0.63609 3.39256,2.27905 l -2.99148,3.58258 q -0.72793,-1.09229 -1.78731,-1.54204 -1.0433,-0.4699 -2.43818,-0.31334 -1.68474,0.18909 -2.62175,1.15641 -0.93906,0.9492 -0.7886,2.28974 0.23586,2.10139 4.52513,3.38096 0.85383,0.2527 1.31096,0.40317 3.5423,1.16163 5.37212,2.91903 1.84795,1.75535 2.1265,4.23717 0.41884,3.73177 -1.88534,6.24666 -2.28811,2.49473 -6.58146,2.9766 -3.04339,0.34159 -5.33517,-0.46512 -2.29178,-0.80671 -3.58221,-2.66133 z"
       style="font-style:normal;font-variant:normal;font-weight:normal;font-stretch:normal;font-size:37.33333206px;font-family:'Futura Hv BT';-inkscape-font-specification:'Futura Hv BT';letter-spacing:6px;fill:#ffffff;fill-opacity:1"
       id="path4357" /><path
       d="m 237.09679,326.24496 q -2.09811,-0.99891 -4.04748,-1.16756 -1.95449,-0.18614 -3.94846,0.39925 -4.09289,1.20159 -5.80524,4.36409 -1.71235,3.1625 -0.50049,7.29037 1.18618,4.04042 4.14088,5.75678 2.94956,1.69887 6.85004,0.55376 2.22136,-0.65214 3.91221,-1.94647 1.68571,-1.31183 2.8759,-3.27612 l 1.61335,5.62488 q -1.44614,1.54546 -3.22123,2.61755 -1.7576,1.06695 -3.87401,1.68829 -6.12184,1.79724 -11.17161,-0.84293 -5.03741,-2.66279 -6.75763,-8.52227 -1.71508,-5.84199 1.10609,-10.7929 2.82118,-4.95092 9.03048,-6.77384 2.08143,-0.61106 4.1513,-0.74377 2.06987,-0.13271 4.22592,0.22224 z"
       style="font-style:normal;font-variant:normal;font-weight:normal;font-stretch:normal;font-size:37.33333206px;font-family:'Futura Hv BT';-inkscape-font-specification:'Futura Hv BT';letter-spacing:6px;fill:#ffffff;fill-opacity:1"
       id="path4359" /><path
       d="m 253.17645,340.58478 -11.21224,-24.21793 5.17775,-2.39715 11.21223,24.21793 z"
       style="font-style:normal;font-variant:normal;font-weight:normal;font-stretch:normal;font-size:37.33333206px;font-family:'Futura Hv BT';-inkscape-font-specification:'Futura Hv BT';letter-spacing:6px;fill:#ffffff;fill-opacity:1"
       id="path4361" /><path
       d="m 265.84102,330.72449 0.75957,-4.73077 q 1.29799,0.92593 2.88063,0.93819 1.57288,-0.003 2.97457,-0.89031 1.69435,-1.0724 2.17319,-2.49731 0.47885,-1.42491 -0.37907,-2.78039 -1.01391,-1.60192 -5.29894,-1.11188 -1.38454,0.16438 -2.2054,0.23088 -3.93232,0.33152 -5.99832,-0.41034 -2.07575,-0.75727 -3.36263,-2.79049 -1.76459,-2.78797 -0.69284,-5.96886 1.0774,-3.20604 4.60472,-5.43859 2.04862,-1.29663 3.98553,-1.5086 1.94257,-0.23712 4.04757,0.56635 l -1.12399,4.52995 q -1.13225,-0.66408 -2.28164,-0.60538 -1.14375,0.0336 -2.32979,0.78424 -1.43249,0.90667 -1.85226,2.18632 -0.42952,1.26424 0.29191,2.40407 1.1309,1.78677 5.54793,1.06217 0.87838,-0.14605 1.35529,-0.2106 3.69366,-0.50407 6.1077,0.2764 2.42944,0.77071 3.76507,2.88094 2.00832,3.17305 1.03562,6.44227 -0.96705,3.24406 -4.61759,5.5546 -2.58773,1.63786 -5.00156,1.91437 -2.41383,0.27651 -4.38527,-0.82723 z"
       style="font-style:normal;font-variant:normal;font-weight:normal;font-stretch:normal;font-size:37.33333206px;font-family:'Futura Hv BT';-inkscape-font-specification:'Futura Hv BT';letter-spacing:6px;fill:#ffffff;fill-opacity:1"
       id="path4363" /><path
       d="m 284.4982,294.44228 14.33717,16.47323 -4.31769,3.75783 -14.33717,-16.47324 -4.92272,4.2844 -3.18338,-3.65766 14.19063,-12.35055 3.18338,3.65766 z"
       style="font-style:normal;font-variant:normal;font-weight:normal;font-stretch:normal;font-size:37.33333206px;font-family:'Futura Hv BT';-inkscape-font-specification:'Futura Hv BT';letter-spacing:6px;fill:#ffffff;fill-opacity:1"
       id="path4365" /><path
       d="m 310.18532,283.99834 -8.55569,-3.17546 q -0.37659,-0.14494 -1.22162,-0.58135 -0.84503,-0.4364 -2.02524,-1.12535 0.84822,1.0059 1.51105,1.83544 0.64877,0.81796 0.84654,1.12261 l 4.7388,7.63616 z m -2.96682,19.56886 -14.14066,-24.80646 4.14976,-5.03674 27.14635,9.02096 -4.12658,5.0086 -5.75488,-1.93075 -6.57239,7.97717 3.19315,5.04001 z"
       style="font-style:normal;font-variant:normal;font-weight:normal;font-stretch:normal;font-size:37.33333206px;font-family:'Futura Hv BT';-inkscape-font-specification:'Futura Hv BT';letter-spacing:6px;fill:#ffffff;fill-opacity:1"
       id="path4367" /></g><g
     aria-label="BARISTA BARISTA"
     style="font-style:normal;font-variant:normal;font-weight:normal;font-stretch:normal;font-size:36px;line-height:25px;font-family:'Latin Modern Roman';-inkscape-font-specification:'Latin Modern Roman, Normal';text-align:start;letter-spacing:-1px;word-spacing:0px;writing-mode:lr-tb;text-anchor:start;fill:#ffffff;fill-opacity:1;stroke:none;stroke-width:1px;stroke-linecap:butt;stroke-linejoin:miter;stroke-opacity:1"
     id="text879"><path
       d="m 55.907417,106.41755 1.14759,-1.83242 q 1.10094,-1.75793 0.910287,-3.14252 -0.20555,-1.39392 -1.680423,-2.317591 -1.385486,-0.86769 -2.684603,-0.4161 -1.289788,0.436692 -2.362738,2.149931 l -1.184911,1.892 z m -9.460041,-5.92456 0.6531,-1.042835 q 1.32486,-2.115474 1.279422,-3.367638 -0.04544,-1.252165 -1.445822,-2.129185 -1.370589,-0.85836 -2.483409,-0.373061 -1.103491,0.470401 -2.419021,2.570977 l -0.70908,1.132225 z M 56.622165,113.35705 34.811929,99.697924 37.36835,95.615953 q 1.98729,-3.17321 3.154891,-4.474575 1.162034,-1.325593 2.399906,-2.043687 1.523038,-0.809135 3.144034,-0.748029 1.630327,0.04621 3.134995,0.988538 1.936701,1.212901 2.395209,3.097094 0.443611,1.874863 -0.596539,4.396792 2.03875,-2.394314 4.204346,-2.904737 2.174926,-0.52532 4.379786,0.85552 1.608952,1.00764 2.464585,2.622021 0.840735,1.605051 0.721692,3.41791 -0.100231,1.61724 -0.834145,3.41836 -0.733914,1.80112 -3.085074,5.55534 l -0.29856,0.47672 z"
       style="font-style:normal;font-variant:normal;font-weight:normal;font-stretch:normal;font-size:36px;font-family:'Futura Hv BT';-inkscape-font-specification:'Futura Hv BT';letter-spacing:1px;fill:#ffffff;fill-opacity:1"
       id="path4316" /><path
       d="m 70.502879,78.006098 -8.12055,-3.390783 q -0.357238,-0.154227 -1.154538,-0.607422 -0.7973,-0.453195 -1.907773,-1.162685 0.778323,1.002025 1.384862,1.826959 0.593432,0.81322 0.772185,1.114412 l 4.270271,7.540945 z M 66.88679,96.746014 54.222432,72.297372 l 4.193311,-4.692291 25.806523,9.742634 -4.169885,4.666077 -5.47013,-2.083064 -6.641361,7.431645 2.881522,4.979703 z"
       style="font-style:normal;font-variant:normal;font-weight:normal;font-stretch:normal;font-size:36px;font-family:'Futura Hv BT';-inkscape-font-specification:'Futura Hv BT';letter-spacing:1px;fill:#ffffff;fill-opacity:1"
       id="path4318" /><path
       d="m 101.82885,63.512816 -4.971092,3.944137 -12.77468,-5.212555 7.473102,9.418906 -4.310114,3.419709 -15.995059,-20.159765 6.169108,-4.894663 q 3.676679,-2.917132 6.644394,-2.93812 2.956789,-0.03476 5.229311,2.829469 1.649764,2.07932 1.565702,4.546974 -0.08406,2.467654 -1.87033,4.288805 z m -19.450163,-3.41659 0.647205,-0.513503 q 2.616363,-2.075861 3.008404,-3.306906 0.381116,-1.244814 -0.74422,-2.663158 -1.179963,-1.487196 -2.580456,-1.385772 -1.397649,0.07673 -3.890079,2.054259 l -0.647205,0.513502 z"
       style="font-style:normal;font-variant:normal;font-weight:normal;font-stretch:normal;font-size:36px;font-family:'Futura Hv BT';-inkscape-font-specification:'Futura Hv BT';letter-spacing:1px;fill:#ffffff;fill-opacity:1"
       id="path4320" /><path
       d="M 105.6276,61.440341 92.193154,39.490994 96.885877,36.61874 110.32032,58.568086 Z"
       style="font-style:normal;font-variant:normal;font-weight:normal;font-stretch:normal;font-size:36px;font-family:'Futura Hv BT';-inkscape-font-specification:'Futura Hv BT';letter-spacing:1px;fill:#ffffff;fill-opacity:1"
       id="path4322" /><path
       d="m 113.37534,52.830914 1.32131,-4.427272 q 1.12445,1.048522 2.63598,1.259341 1.50415,0.194867 2.95583,-0.476974 1.75478,-0.812117 2.39183,-2.114153 0.63706,-1.302036 -0.0126,-2.70586 -0.76782,-1.659064 -4.92614,-1.729624 -1.34436,-0.01702 -2.13751,-0.0567 -3.80117,-0.177742 -5.68303,-1.146901 -1.88925,-0.985111 -2.86379,-3.090847 -1.3363,-2.88741 0.0885,-5.793657 1.43337,-2.929581 5.08651,-4.62026 2.12168,-0.981922 4.00012,-0.940908 1.88701,0.01768 3.7984,1.050647 l -1.64445,4.189432 q -0.99893,-0.777328 -2.10519,-0.865799 -1.09769,-0.111806 -2.32604,0.456675 -1.48359,0.686608 -2.04589,1.857201 -0.56968,1.154641 -0.0233,2.335129 0.85642,1.850495 5.17045,1.71341 0.85814,-0.02913 1.32221,-0.03084 3.59472,-0.01725 5.80446,1.032597 2.2257,1.042464 3.23715,3.227962 1.52087,3.286224 0.17966,6.289372 -1.33265,2.979813 -5.1134,4.729554 -2.68003,1.240323 -5.02254,1.201021 -2.34251,-0.0393 -4.08844,-1.34254 z"
       style="font-style:normal;font-variant:normal;font-weight:normal;font-stretch:normal;font-size:36px;font-family:'Futura Hv BT';-inkscape-font-specification:'Futura Hv BT';letter-spacing:1px;fill:#ffffff;fill-opacity:1"
       id="path4324" /><path
       d="m 138.81079,23.754156 6.08342,20.160762 -5.28421,1.594487 -6.08342,-20.160762 -6.02467,1.817917 -1.35074,-4.476429 17.3672,-5.240478 1.35074,4.476429 z"
       style="font-style:normal;font-variant:normal;font-weight:normal;font-stretch:normal;font-size:36px;font-family:'Futura Hv BT';-inkscape-font-specification:'Futura Hv BT';letter-spacing:1px;fill:#ffffff;fill-opacity:1"
       id="path4326" /><path
       d="m 165.41328,29.931122 -3.9897,-7.843664 q -0.17224,-0.348913 -0.48604,-1.210655 -0.3138,-0.861742 -0.70015,-2.121608 -0.0562,1.267551 -0.12853,2.288909 -0.0747,1.003944 -0.13367,1.349191 l -1.63197,8.511036 z m -14.89461,11.933619 6.19025,-26.829143 6.23418,-0.85815 13.34817,24.139633 -6.19936,0.853356 -2.81774,-5.130477 -9.87369,1.359137 -1.03073,5.66023 z"
       style="font-style:normal;font-variant:normal;font-weight:normal;font-stretch:normal;font-size:36px;font-family:'Futura Hv BT';-inkscape-font-specification:'Futura Hv BT';letter-spacing:1px;fill:#ffffff;fill-opacity:1"
       id="path4328" /><path
       d="m 198.05604,35.061268 2.14849,0.242276 q 2.06116,0.232426 3.22712,-0.538259 1.16794,-0.788153 1.36294,-2.517427 0.18319,-1.62447 -0.78581,-2.600527 -0.95153,-0.974086 -2.96028,-1.200604 l -2.21836,-0.250154 z m 1.25077,-11.09181 1.22272,0.13788 q 2.48037,0.2797 3.58974,-0.302783 1.10937,-0.582483 1.29452,-2.224421 0.18121,-1.607002 -0.73761,-2.400505 -0.90136,-0.791534 -3.36426,-1.069264 l -1.32753,-0.149699 z m -7.19868,14.737338 2.88366,-25.5723 4.78608,0.539703 q 3.72056,0.41955 5.39888,0.909529 1.69776,0.474481 2.88056,1.280062 1.38822,1.02333 2.03414,2.51133 0.66339,1.489971 0.46445,3.25418 -0.25606,2.270764 -1.75666,3.499022 -1.49863,1.21079 -4.22236,1.363576 3.04052,0.802793 4.43728,2.534668 1.41423,1.733845 1.12271,4.319022 -0.21272,1.886482 -1.29831,3.356124 -1.08361,1.452175 -2.76966,2.128834 -1.50153,0.609019 -3.4429,0.7262 -1.94137,0.117182 -6.34316,-0.379187 l -0.55896,-0.06303 z"
       style="font-style:normal;font-variant:normal;font-weight:normal;font-stretch:normal;font-size:36px;font-family:'Futura Hv BT';-inkscape-font-specification:'Futura Hv BT';letter-spacing:1px;fill:#ffffff;fill-opacity:1"
       id="path4330" /><path
       d="m 229.98406,35.92788 -0.45702,-8.788167 q -0.0155,-0.388798 0.048,-1.303692 0.0636,-0.914895 0.22267,-2.223028 -0.56656,1.135275 -1.04781,2.039051 -0.47635,0.886892 -0.67053,1.178374 l -4.95056,7.112876 z m -18.45934,4.849086 16.56108,-21.996655 6.04476,1.749955 2.38367,27.481151 -6.01099,-1.740179 -0.48908,-5.832862 -9.57368,-2.771577 -3.24246,4.752583 z"
       style="font-style:normal;font-variant:normal;font-weight:normal;font-stretch:normal;font-size:36px;font-family:'Futura Hv BT';-inkscape-font-specification:'Futura Hv BT';letter-spacing:1px;fill:#ffffff;fill-opacity:1"
       id="path4332" /><path
       d="m 256.6048,57.89911 -5.70656,-2.775439 -0.82723,-13.772395 -5.25872,10.812439 -4.9478,-2.406406 11.25552,-23.142413 7.08183,3.444312 q 4.22065,2.052749 5.52349,4.719275 1.31054,2.65072 -0.28861,5.938713 -1.16091,2.386956 -3.42205,3.37875 -2.26113,0.991794 -4.67582,0.169231 z m -5.33443,-19.013829 0.74296,0.361345 q 3.00346,1.460758 4.28294,1.281624 1.28717,-0.194942 2.07906,-1.823131 0.83032,-1.707227 0.13299,-2.925993 -0.67384,-1.226885 -3.53503,-2.618449 l -0.74296,-0.361345 z"
       style="font-style:normal;font-variant:normal;font-weight:normal;font-stretch:normal;font-size:36px;font-family:'Futura Hv BT';-inkscape-font-specification:'Futura Hv BT';letter-spacing:1px;fill:#ffffff;fill-opacity:1"
       id="path4334" /><path
       d="m 260.11635,60.42796 13.97902,-21.606601 4.61944,2.988682 -13.97901,21.606602 z"
       style="font-style:normal;font-variant:normal;font-weight:normal;font-stretch:normal;font-size:36px;font-family:'Futura Hv BT';-inkscape-font-specification:'Futura Hv BT';letter-spacing:1px;fill:#ffffff;fill-opacity:1"
       id="path4336" /><path
       d="m 271.22986,63.68976 4.56323,-0.723564 q -0.45902,1.467336 0.005,2.921352 0.47488,1.440459 1.70851,2.458742 1.4912,1.230892 2.94069,1.242115 1.44949,0.01122 2.4342,-1.181741 1.16375,-1.409866 -0.5712,-5.18963 -0.56612,-1.219466 -0.87339,-1.951747 -1.48384,-3.504107 -1.42397,-5.620019 0.0711,-2.129469 1.54813,-3.918914 2.02538,-2.453709 5.26198,-2.426092 3.26134,0.02525 6.36575,2.587744 1.80301,1.48826 2.57849,3.199644 0.80024,1.709017 0.69561,3.879156 l -4.48855,0.329346 q 0.26879,-1.236877 -0.12992,-2.272572 -0.37397,-1.03806 -1.41781,-1.899685 -1.26075,-1.040663 -2.55939,-1.041338 -1.28745,-0.01423 -2.11551,0.988942 -1.29803,1.572543 0.69149,5.402881 0.39743,0.761118 0.59969,1.178797 1.57035,3.23362 1.57954,5.680059 0.0228,2.457628 -1.51026,4.314855 -2.30513,2.792619 -5.59294,2.882276 -3.26307,0.08729 -6.47593,-2.564721 -2.27748,-1.879908 -3.25523,-4.00897 -0.97775,-2.129063 -0.55788,-4.266916 z"
       style="font-style:normal;font-variant:normal;font-weight:normal;font-stretch:normal;font-size:36px;font-family:'Futura Hv BT';-inkscape-font-specification:'Futura Hv BT';letter-spacing:1px;fill:#ffffff;fill-opacity:1"
       id="path4338" /><path
       d="m 308.44694,74.04449 -15.54487,14.206379 -3.72355,-4.074366 15.54488,-14.206379 -4.24531,-4.645297 3.45153,-3.154338 12.23788,13.390911 -3.45153,3.154338 z"
       style="font-style:normal;font-variant:normal;font-weight:normal;font-stretch:normal;font-size:36px;font-family:'Futura Hv BT';-inkscape-font-specification:'Futura Hv BT';letter-spacing:1px;fill:#ffffff;fill-opacity:1"
       id="path4340" /><path
       d="m 314.38728,100.69883 5.34489,-6.990918 q 0.24002,-0.306256 0.88112,-0.96205 0.6411,-0.655793 1.60972,-1.549265 -1.16704,0.497835 -2.11913,0.874582 -0.93742,0.367052 -1.27418,0.46331 l -8.37913,2.211603 z m -17.20366,-8.264051 26.86589,-6.028736 3.47129,5.248965 -15.98662,22.479402 -3.45189,-5.21964 3.40599,-4.76033 -5.49782,-8.3133 -5.54888,1.520042 z"
       style="font-style:normal;font-variant:normal;font-weight:normal;font-stretch:normal;font-size:36px;font-family:'Futura Hv BT';-inkscape-font-specification:'Futura Hv BT';letter-spacing:1px;fill:#ffffff;fill-opacity:1"
       id="path4342" /></g></svg>