<?xml version="1.0" encoding="UTF-8" standalone="no"?>
<!-- Created with Inkscape (http://www.inkscape.org/) -->

<svg
   xmlns:dc="http://purl.org/dc/elements/1.1/"
   xmlns:cc="http://creativecommons.org/ns#"
   xmlns:rdf="http://www.w3.org/1999/02/22-rdf-syntax-ns#"
   xmlns:svg="http://www.w3.org/2000/svg"
   xmlns="http://www.w3.org/2000/svg"
   xmlns:sodipodi="http://sodipodi.sourceforge.net/DTD/sodipodi-0.dtd"
   xmlns:inkscape="http://www.inkscape.org/namespaces/inkscape"
   version="1.1"
   width="367.35001"
   height="367.35001"
   id="svg2"
   xml:space="preserve"
   sodipodi:docname="barista-bohne.svg"
   inkscape:version="0.92.2 5c3e80d, 2017-08-06"
   inkscape:export-filename="barista-bohne.png"
   inkscape:export-xdpi="267.60309"
   inkscape:export-ydpi="267.60309"><metadata
     id="metadata34"><rdf:RDF><cc:Work
         rdf:about=""><dc:format>image/svg+xml</dc:format><dc:type
           rdf:resource="http://purl.org/dc/dcmitype/StillImage" /><dc:title /></cc:Work></rdf:RDF></metadata><sodipodi:namedview
     pagecolor="#ffffff"
     bordercolor="#666666"
     borderopacity="1"
     objecttolerance="10"
     gridtolerance="10"
     guidetolerance="10"
     inkscape:pageopacity="0"
     inkscape:pageshadow="2"
     inkscape:window-width="1440"
     inkscape:window-height="827"
     id="namedview32"
     showgrid="false"
     inkscape:snap-global="false"
     inkscape:zoom="1.7013747"
     inkscape:cx="183.675"
     inkscape:cy="183.675"
     inkscape:window-x="0"
     inkscape:window-y="24"
     inkscape:window-maximized="1"
     inkscape:current-layer="svg2" /><defs
     id="defs6" /><circle
     style="opacity:1;fill:#ffffff;fill-opacity:1;fill-rule:nonzero;stroke:none;stroke-width:10;stroke-linecap:butt;stroke-linejoin:round;stroke-miterlimit:4;stroke-dasharray:none;stroke-dashoffset:0;stroke-opacity:1"
     id="path905"
     cx="183.675"
     cy="183.675"
     r="178" /><path
     style="opacity:1;fill:none;fill-opacity:1;fill-rule:nonzero;stroke:#00ffff;stroke-width:0.5;stroke-linecap:butt;stroke-linejoin:round;stroke-miterlimit:4;stroke-dasharray:none;stroke-dashoffset:0;stroke-opacity:1"
     id="path881"
     transform="scale(-1)"
     sodipodi:type="arc"
     sodipodi:cx="-184.04767"
     sodipodi:cy="-183.15234"
     sodipodi:rx="145"
     sodipodi:ry="145"
     sodipodi:start="0.48555602"
     sodipodi:end="2.8430067"
     d="M -55.807408,-115.48082 A 145,145 0 0 1 -197.58326,-38.785493 145,145 0 0 1 -322.63191,-140.49784"
     sodipodi:open="true" /><path
     id="path931"
     style="opacity:1;fill:none;fill-opacity:1;fill-rule:nonzero;stroke:#00ffff;stroke-width:0.5;stroke-linecap:butt;stroke-linejoin:round;stroke-miterlimit:4;stroke-dasharray:none;stroke-dashoffset:0;stroke-opacity:1"
     transform="scale(-1,1)"
     d="M -44.264258,282.65883 A 171.58363,171.58363 0 0 1 -212.54065,352.35368 171.58363,171.58363 0 0 1 -348.7109,231.39096"
     sodipodi:type="arc"
     sodipodi:start="0.61864271"
     sodipodi:end="2.8566133"
     sodipodi:ry="171.58363"
     sodipodi:rx="171.58363"
     sodipodi:cy="183.15234"
     sodipodi:cx="-184.04767"
     sodipodi:open="true" /><path
     inkscape:connector-curvature="0"
     d="m 183.67266,362.92267 c -98.753087,0 -179.2453169,-80.49109 -179.2453169,-179.24532 0,-98.754621 80.4921609,-179.2500094 179.2453269,-179.2500094 98.75457,0 179.24999,80.4954254 179.24999,179.2500094 0,98.75421 -80.4955,179.24532 -179.25,179.24532 z m 0,-40.74844 c 76.73348,0 138.50155,-61.76397 138.50155,-138.49689 0,-76.7334 -61.76815,-138.501549 -138.50154,-138.501549 -76.73157,0 -138.496889,61.768189 -138.496889,138.501549 0,76.73289 61.765259,138.49689 138.496879,138.49689 z"
     id="path20"
     style="color:#000000;font-style:normal;font-variant:normal;font-weight:normal;font-stretch:normal;font-size:medium;line-height:normal;font-family:'Bitstream Vera Sans';-inkscape-font-specification:'Bitstream Vera Sans';text-indent:0;text-align:start;text-decoration:none;text-decoration-line:none;letter-spacing:normal;word-spacing:normal;text-transform:none;writing-mode:lr-tb;direction:ltr;text-anchor:start;display:inline;overflow:visible;visibility:visible;fill:#231f20;fill-opacity:1;stroke:none;stroke-width:40.74795151;marker:none;enable-background:accumulate" /><g
     aria-label="BARISTA BARISTA"
     style="font-style:normal;font-variant:normal;font-weight:normal;font-stretch:normal;font-size:36px;line-height:25px;font-family:'Latin Modern Roman';-inkscape-font-specification:'Latin Modern Roman, Normal';text-align:start;letter-spacing:-1px;word-spacing:0px;writing-mode:lr-tb;text-anchor:start;fill:#ffffff;fill-opacity:1;stroke:none;stroke-width:1px;stroke-linecap:butt;stroke-linejoin:miter;stroke-opacity:1"
     id="text879"><path
       d="m 56.280067,105.89489 1.14759,-1.83242 q 1.10094,-1.75793 0.910288,-3.14252 -0.205551,-1.39392 -1.680423,-2.31759 -1.385487,-0.86769 -2.684604,-0.416101 -1.289788,0.436692 -2.362738,2.149931 l -1.18491,1.89201 z m -9.460041,-5.924555 0.6531,-1.042839 q 1.32486,-2.115474 1.279422,-3.367639 -0.04544,-1.252164 -1.445822,-2.129184 -1.370588,-0.858361 -2.483409,-0.373062 -1.10349,0.470402 -2.419021,2.570978 l -0.70908,1.132225 z M 56.994815,112.83439 35.184579,99.175264 37.741,95.093294 q 1.98729,-3.173211 3.154891,-4.474576 1.162034,-1.325592 2.399907,-2.043687 1.523037,-0.809134 3.144034,-0.748028 1.630326,0.04621 3.134994,0.988538 1.936701,1.2129 2.395209,3.097094 0.443611,1.874863 -0.596539,4.396791 2.038751,-2.394313 4.204346,-2.904736 2.174926,-0.525321 4.379786,0.85552 1.608952,1.00764 2.464585,2.622021 0.840735,1.60505 0.721693,3.417909 -0.100232,1.61724 -0.834146,3.41836 -0.733914,1.80112 -3.085074,5.55534 l -0.29856,0.47672 z"
       style="font-style:normal;font-variant:normal;font-weight:normal;font-stretch:normal;font-size:36px;font-family:'Futura Hv BT';-inkscape-font-specification:'Futura Hv BT';letter-spacing:1px;fill:#ffffff;fill-opacity:1"
       id="path824" /><path
       d="m 70.875529,77.483439 -8.12055,-3.390783 q -0.357238,-0.154228 -1.154538,-0.607422 -0.7973,-0.453195 -1.907772,-1.162685 0.778323,1.002025 1.384861,1.826958 0.593432,0.813221 0.772185,1.114412 l 4.270271,7.540945 z M 67.25944,96.223355 54.595082,71.774713 l 4.193311,-4.692291 25.806523,9.742634 -4.169885,4.666077 -5.47013,-2.083065 -6.641361,7.431646 2.881522,4.979703 z"
       style="font-style:normal;font-variant:normal;font-weight:normal;font-stretch:normal;font-size:36px;font-family:'Futura Hv BT';-inkscape-font-specification:'Futura Hv BT';letter-spacing:1px;fill:#ffffff;fill-opacity:1"
       id="path826" /><path
       d="m 102.2015,62.990157 -4.971092,3.944137 -12.774679,-5.212556 7.473101,9.418907 -4.310114,3.419709 -15.995059,-20.159765 6.169108,-4.894663 q 3.676679,-2.917132 6.644394,-2.938121 2.956789,-0.03476 5.229312,2.82947 1.649763,2.07932 1.565701,4.546974 -0.08406,2.467654 -1.87033,4.288804 z m -19.450163,-3.41659 0.647205,-0.513503 q 2.616363,-2.075862 3.008405,-3.306906 0.381115,-1.244815 -0.74422,-2.663159 -1.179964,-1.487196 -2.580457,-1.385772 -1.397649,0.07673 -3.890079,2.054259 l -0.647205,0.513503 z"
       style="font-style:normal;font-variant:normal;font-weight:normal;font-stretch:normal;font-size:36px;font-family:'Futura Hv BT';-inkscape-font-specification:'Futura Hv BT';letter-spacing:1px;fill:#ffffff;fill-opacity:1"
       id="path828" /><path
       d="M 106.00025,60.917681 92.565805,38.968335 97.258527,36.09608 110.69297,58.045427 Z"
       style="font-style:normal;font-variant:normal;font-weight:normal;font-stretch:normal;font-size:36px;font-family:'Futura Hv BT';-inkscape-font-specification:'Futura Hv BT';letter-spacing:1px;fill:#ffffff;fill-opacity:1"
       id="path830" /><path
       d="m 113.74799,52.308254 1.32131,-4.427271 q 1.12445,1.048521 2.63598,1.259341 1.50415,0.194867 2.95583,-0.476975 1.75478,-0.812116 2.39183,-2.114152 0.63706,-1.302036 -0.0126,-2.70586 -0.76782,-1.659065 -4.92614,-1.729624 -1.34436,-0.01702 -2.13751,-0.0567 -3.80117,-0.177742 -5.68303,-1.146901 -1.88925,-0.985112 -2.86379,-3.090847 -1.3363,-2.887411 0.0885,-5.793657 1.43337,-2.929581 5.08651,-4.62026 2.12168,-0.981922 4.00012,-0.940909 1.88701,0.01768 3.79841,1.050647 l -1.64446,4.189432 q -0.99893,-0.777327 -2.10519,-0.865798 -1.09769,-0.111806 -2.32604,0.456675 -1.48359,0.686607 -2.04588,1.857201 -0.56969,1.154641 -0.0234,2.335129 0.85641,1.850495 5.17044,1.713409 0.85814,-0.02913 1.32221,-0.03084 3.59472,-0.01725 5.80446,1.032598 2.2257,1.042463 3.23715,3.227962 1.52088,3.286224 0.17966,6.289372 -1.33265,2.979813 -5.1134,4.729554 -2.68003,1.240323 -5.02254,1.201021 -2.34251,-0.0393 -4.08844,-1.342541 z"
       style="font-style:normal;font-variant:normal;font-weight:normal;font-stretch:normal;font-size:36px;font-family:'Futura Hv BT';-inkscape-font-specification:'Futura Hv BT';letter-spacing:1px;fill:#ffffff;fill-opacity:1"
       id="path832" /><path
       d="m 139.18344,23.231497 6.08342,20.160762 -5.28421,1.594486 -6.08342,-20.160762 -6.02467,1.817918 -1.35074,-4.47643 17.3672,-5.240478 1.35074,4.47643 z"
       style="font-style:normal;font-variant:normal;font-weight:normal;font-stretch:normal;font-size:36px;font-family:'Futura Hv BT';-inkscape-font-specification:'Futura Hv BT';letter-spacing:1px;fill:#ffffff;fill-opacity:1"
       id="path834" /><path
       d="m 165.78593,29.408462 -3.9897,-7.843664 q -0.17224,-0.348913 -0.48604,-1.210655 -0.3138,-0.861742 -0.70015,-2.121607 -0.0562,1.26755 -0.12853,2.288908 -0.0747,1.003945 -0.13367,1.349191 l -1.63196,8.511037 z m -14.89461,11.93362 6.19025,-26.829143 6.23418,-0.85815 13.34817,24.139633 -6.19936,0.853356 -2.81774,-5.130478 -9.87369,1.359138 -1.03073,5.660229 z"
       style="font-style:normal;font-variant:normal;font-weight:normal;font-stretch:normal;font-size:36px;font-family:'Futura Hv BT';-inkscape-font-specification:'Futura Hv BT';letter-spacing:1px;fill:#ffffff;fill-opacity:1"
       id="path836" /><path
       d="m 198.42869,34.538609 2.14849,0.242275 q 2.06116,0.232427 3.22712,-0.538258 1.16794,-0.788153 1.36294,-2.517428 0.18319,-1.62447 -0.78581,-2.600526 -0.95153,-0.974086 -2.96028,-1.200604 l -2.21836,-0.250154 z m 1.25077,-11.09181 1.22272,0.13788 q 2.48037,0.2797 3.58974,-0.302783 1.10937,-0.582484 1.29452,-2.224421 0.18121,-1.607002 -0.73761,-2.400506 -0.90136,-0.791533 -3.36426,-1.069264 l -1.32753,-0.149698 z m -7.19868,14.737338 2.88366,-25.5723 4.78608,0.539703 q 3.72056,0.41955 5.39888,0.909529 1.69776,0.474481 2.88056,1.280062 1.38822,1.02333 2.03414,2.51133 0.66339,1.48997 0.46445,3.25418 -0.25606,2.270764 -1.75666,3.499022 -1.49863,1.21079 -4.22236,1.363576 3.04052,0.802793 4.43728,2.534668 1.41423,1.733844 1.12271,4.319022 -0.21272,1.886481 -1.29831,3.356123 -1.08361,1.452175 -2.76966,2.128834 -1.50153,0.60902 -3.4429,0.726201 -1.94137,0.117182 -6.34316,-0.379187 l -0.55896,-0.06303 z"
       style="font-style:normal;font-variant:normal;font-weight:normal;font-stretch:normal;font-size:36px;font-family:'Futura Hv BT';-inkscape-font-specification:'Futura Hv BT';letter-spacing:1px;fill:#ffffff;fill-opacity:1"
       id="path838" /><path
       d="m 230.35671,35.405221 -0.45702,-8.788167 q -0.0155,-0.388798 0.048,-1.303692 0.0636,-0.914895 0.22267,-2.223028 -0.56656,1.135275 -1.04781,2.039051 -0.47635,0.886891 -0.67053,1.178374 l -4.95056,7.112876 z m -18.45933,4.849086 16.56107,-21.996655 6.04476,1.749955 2.38367,27.48115 -6.01099,-1.740178 -0.48908,-5.832863 -9.57368,-2.771576 -3.24246,4.752583 z"
       style="font-style:normal;font-variant:normal;font-weight:normal;font-stretch:normal;font-size:36px;font-family:'Futura Hv BT';-inkscape-font-specification:'Futura Hv BT';letter-spacing:1px;fill:#ffffff;fill-opacity:1"
       id="path840" /><path
       d="m 256.97745,57.376451 -5.70656,-2.775439 -0.82723,-13.772396 -5.25872,10.81244 -4.9478,-2.406406 11.25552,-23.142414 7.08183,3.444313 q 4.22065,2.052748 5.52349,4.719275 1.31054,2.650719 -0.28861,5.938713 -1.16091,2.386956 -3.42205,3.37875 -2.26113,0.991793 -4.67582,0.169231 z m -5.33443,-19.013829 0.74296,0.361345 q 3.00346,1.460757 4.28294,1.281623 1.28717,-0.194941 2.07906,-1.82313 0.83032,-1.707228 0.13299,-2.925993 -0.67384,-1.226885 -3.53503,-2.618449 l -0.74296,-0.361345 z"
       style="font-style:normal;font-variant:normal;font-weight:normal;font-stretch:normal;font-size:36px;font-family:'Futura Hv BT';-inkscape-font-specification:'Futura Hv BT';letter-spacing:1px;fill:#ffffff;fill-opacity:1"
       id="path842" /><path
       d="m 260.489,59.905301 13.97902,-21.606602 4.61944,2.988683 -13.97901,21.606602 z"
       style="font-style:normal;font-variant:normal;font-weight:normal;font-stretch:normal;font-size:36px;font-family:'Futura Hv BT';-inkscape-font-specification:'Futura Hv BT';letter-spacing:1px;fill:#ffffff;fill-opacity:1"
       id="path844" /><path
       d="m 271.60251,63.167101 4.56323,-0.723564 q -0.45902,1.467336 0.005,2.921351 0.47488,1.44046 1.70851,2.458743 1.4912,1.230892 2.94069,1.242114 1.44949,0.01122 2.4342,-1.181741 1.16375,-1.409865 -0.5712,-5.189629 -0.56612,-1.219466 -0.87339,-1.951748 -1.48384,-3.504106 -1.42397,-5.620019 0.0711,-2.129469 1.54813,-3.918914 2.02538,-2.453708 5.26198,-2.426091 3.26134,0.02525 6.36575,2.587743 1.80301,1.488261 2.57849,3.199645 0.80024,1.709017 0.69561,3.879155 l -4.48855,0.329347 q 0.26879,-1.236877 -0.12992,-2.272572 -0.37397,-1.038061 -1.41781,-1.899685 -1.26075,-1.040663 -2.55939,-1.041338 -1.28745,-0.01423 -2.11551,0.988942 -1.29803,1.572543 0.69149,5.402881 0.39743,0.761118 0.59969,1.178797 1.57035,3.23362 1.57954,5.680059 0.0228,2.457628 -1.51026,4.314855 -2.30513,2.792618 -5.59294,2.882276 -3.26307,0.08729 -6.47593,-2.564721 -2.27748,-1.879908 -3.25523,-4.008971 -0.97775,-2.129062 -0.55788,-4.266915 z"
       style="font-style:normal;font-variant:normal;font-weight:normal;font-stretch:normal;font-size:36px;font-family:'Futura Hv BT';-inkscape-font-specification:'Futura Hv BT';letter-spacing:1px;fill:#ffffff;fill-opacity:1"
       id="path846" /><path
       d="m 308.81959,73.521831 -15.54487,14.206379 -3.72355,-4.074367 15.54488,-14.206379 -4.24531,-4.645296 3.45153,-3.154338 12.23788,13.390911 -3.45153,3.154338 z"
       style="font-style:normal;font-variant:normal;font-weight:normal;font-stretch:normal;font-size:36px;font-family:'Futura Hv BT';-inkscape-font-specification:'Futura Hv BT';letter-spacing:1px;fill:#ffffff;fill-opacity:1"
       id="path848" /><path
       d="m 314.75993,100.17617 5.34489,-6.990917 q 0.24002,-0.306256 0.88112,-0.96205 0.6411,-0.655794 1.60972,-1.549265 -1.16704,0.497834 -2.11913,0.874582 -0.93742,0.367051 -1.27418,0.46331 l -8.37913,2.211602 z m -17.20366,-8.26405 26.86589,-6.028737 3.47129,5.248965 -15.98662,22.479402 -3.45189,-5.21964 3.40599,-4.76032 -5.49782,-8.31331 -5.54888,1.520043 z"
       style="font-style:normal;font-variant:normal;font-weight:normal;font-stretch:normal;font-size:36px;font-family:'Futura Hv BT';-inkscape-font-specification:'Futura Hv BT';letter-spacing:1px;fill:#ffffff;fill-opacity:1"
       id="path850" /></g><g
     aria-label="ANTIFASCISTA"
     style="font-style:normal;font-variant:normal;font-weight:normal;font-stretch:normal;font-size:37.33333206px;line-height:25px;font-family:'Latin Modern Roman';-inkscape-font-specification:'Latin Modern Roman, Normal';text-align:start;letter-spacing:6px;word-spacing:0px;writing-mode:lr-tb;text-anchor:start;fill:#ffffff;fill-opacity:1;stroke:none;stroke-width:1px;stroke-linecap:butt;stroke-linejoin:miter;stroke-opacity:1"
     id="text937"><path
       d="m 62.428608,289.36699 4.700024,-7.8226 q 0.211956,-0.34337 0.796833,-1.09333 0.584876,-0.74997 1.479815,-1.78274 -1.145169,0.64798 -2.082803,1.14632 -0.923645,0.48666 -1.259565,0.62479 l -8.379602,3.24799 z m -18.685075,-6.52766 26.990215,-9.3192 4.184278,5.0081 -13.876362,25.01496 -4.160902,-4.98012 2.959747,-5.29964 -6.627054,-7.93182 -5.542779,2.20805 z"
       style="font-style:normal;font-variant:normal;font-weight:normal;font-stretch:normal;font-size:37.33333206px;font-family:'Futura Hv BT';-inkscape-font-specification:'Futura Hv BT';letter-spacing:6px;fill:#ffffff;fill-opacity:1"
       id="path853" /><path
       d="m 67.462729,309.68049 16.599456,-20.89691 4.638999,3.68499 -0.410889,19.50861 q -0.0085,0.83134 -0.285816,2.14758 -0.251687,1.31331 -0.746948,2.99186 0.579985,-1.05252 1.234275,-2.02274 0.65429,-0.97022 1.742779,-2.34051 l 9.286171,-11.69027 4.267884,3.39019 -16.599461,20.8969 -4.382069,-3.4809 0.335374,-19.94108 q 0.0085,-0.83134 0.274477,-2.13331 0.277299,-1.31624 0.780964,-3.03468 -0.557309,1.02398 -1.222937,2.00847 -0.65429,0.97022 -1.765456,2.36905 l -9.478924,11.93294 z"
       style="font-style:normal;font-variant:normal;font-weight:normal;font-stretch:normal;font-size:37.33333206px;font-family:'Futura Hv BT';-inkscape-font-specification:'Futura Hv BT';letter-spacing:6px;fill:#ffffff;fill-opacity:1"
       id="path855" /><path
       d="m 116.52019,316.83792 -10.20952,19.30512 -5.05994,-2.67595 10.20952,-19.30512 -5.76898,-3.05093 2.26689,-4.28644 16.63012,8.79484 -2.26689,4.28644 z"
       style="font-style:normal;font-variant:normal;font-weight:normal;font-stretch:normal;font-size:37.33333206px;font-family:'Futura Hv BT';-inkscape-font-specification:'Futura Hv BT';letter-spacing:6px;fill:#ffffff;fill-opacity:1"
       id="path857" /><path
       d="m 121.27503,342.86657 9.35048,-24.99582 5.34405,1.99911 -9.35047,24.99582 z"
       style="font-style:normal;font-variant:normal;font-weight:normal;font-stretch:normal;font-size:37.33333206px;font-family:'Futura Hv BT';-inkscape-font-specification:'Futura Hv BT';letter-spacing:6px;fill:#ffffff;fill-opacity:1"
       id="path859" /><path
       d="m 138.10012,348.61646 6.10179,-25.98059 15.29731,3.59272 -1.10032,4.68502 -9.74272,-2.28817 -1.25454,5.34164 9.74272,2.28817 -1.10865,4.72052 -9.74272,-2.28817 -2.63828,11.2334 z"
       style="font-style:normal;font-variant:normal;font-weight:normal;font-stretch:normal;font-size:37.33333206px;font-family:'Futura Hv BT';-inkscape-font-specification:'Futura Hv BT';letter-spacing:6px;fill:#ffffff;fill-opacity:1"
       id="path861" /><path
       d="m 177.50924,344.48997 -2.45818,-8.78867 q -0.10402,-0.38988 -0.24747,-1.33007 -0.14345,-0.94019 -0.27952,-2.29997 -0.31547,1.2774 -0.59718,2.30119 -0.2806,1.0056 -0.4109,1.34463 l -3.39402,8.32153 z m -17.57719,9.09861 11.76231,-26.01859 6.51389,0.398 8.65274,27.26595 -6.4775,-0.39578 -1.81949,-5.79101 -10.31669,-0.63035 -2.20167,5.54532 z"
       style="font-style:normal;font-variant:normal;font-weight:normal;font-stretch:normal;font-size:37.33333206px;font-family:'Futura Hv BT';-inkscape-font-specification:'Futura Hv BT';letter-spacing:6px;fill:#ffffff;fill-opacity:1"
       id="path863" /><path
       d="m 193.64875,351.32497 2.75154,-3.92252 q 0.7625,1.40025 2.18048,2.10325 1.41596,0.68488 3.06446,0.49986 1.9927,-0.22366 3.04636,-1.29578 1.05366,-1.07213 0.87473,-2.66629 -0.21145,-1.884 -4.27946,-3.31681 -1.31706,-0.45752 -2.08438,-0.75661 -3.68148,-1.42117 -5.21518,-2.99167 -1.53573,-1.58863 -1.80411,-3.97986 -0.36802,-3.27889 1.98663,-5.67103 2.37074,-2.41229 6.51917,-2.8779 2.40935,-0.27042 4.24399,0.38582 1.85073,0.63608 3.39256,2.27905 l -2.99148,3.58258 q -0.72793,-1.09229 -1.78731,-1.54204 -1.0433,-0.4699 -2.43818,-0.31335 -1.68474,0.18909 -2.62175,1.15641 -0.93905,0.94921 -0.7886,2.28975 0.23586,2.10139 4.52513,3.38096 0.85383,0.2527 1.31096,0.40317 3.5423,1.16163 5.37212,2.91902 1.84795,1.75536 2.1265,4.23717 0.41884,3.73178 -1.88534,6.24666 -2.28811,2.49474 -6.58146,2.97661 -3.04339,0.34158 -5.33517,-0.46513 -2.29178,-0.8067 -3.58221,-2.66132 z"
       style="font-style:normal;font-variant:normal;font-weight:normal;font-stretch:normal;font-size:37.33333206px;font-family:'Futura Hv BT';-inkscape-font-specification:'Futura Hv BT';letter-spacing:6px;fill:#ffffff;fill-opacity:1"
       id="path865" /><path
       d="m 237.46944,325.72229 q -2.09811,-0.99891 -4.04748,-1.16756 -1.95449,-0.18614 -3.94846,0.39925 -4.09289,1.20159 -5.80524,4.36409 -1.71235,3.1625 -0.50049,7.29037 1.18618,4.04041 4.14088,5.75677 2.94956,1.69887 6.85004,0.55377 2.22136,-0.65214 3.91221,-1.94648 1.68571,-1.31183 2.8759,-3.27611 l 1.61335,5.62487 q -1.44614,1.54547 -3.22123,2.61756 -1.7576,1.06695 -3.87401,1.68828 -6.12184,1.79725 -11.17161,-0.84292 -5.03741,-2.6628 -6.75763,-8.52228 -1.71508,-5.84198 1.10609,-10.7929 2.82118,-4.95091 9.03048,-6.77383 2.08143,-0.61107 4.1513,-0.74378 2.06987,-0.13271 4.22592,0.22224 z"
       style="font-style:normal;font-variant:normal;font-weight:normal;font-stretch:normal;font-size:37.33333206px;font-family:'Futura Hv BT';-inkscape-font-specification:'Futura Hv BT';letter-spacing:6px;fill:#ffffff;fill-opacity:1"
       id="path867" /><path
       d="m 253.5491,340.06214 -11.21224,-24.21794 5.17775,-2.39715 11.21223,24.21794 z"
       style="font-style:normal;font-variant:normal;font-weight:normal;font-stretch:normal;font-size:37.33333206px;font-family:'Futura Hv BT';-inkscape-font-specification:'Futura Hv BT';letter-spacing:6px;fill:#ffffff;fill-opacity:1"
       id="path869" /><path
       d="m 266.21367,330.20184 0.75957,-4.73077 q 1.29799,0.92594 2.88063,0.9382 1.57288,-0.003 2.97457,-0.89031 1.69435,-1.07241 2.17319,-2.49732 0.47885,-1.4249 -0.37907,-2.78038 -1.01391,-1.60193 -5.29894,-1.11189 -1.38454,0.16439 -2.2054,0.23089 -3.93232,0.33152 -5.99832,-0.41035 -2.07575,-0.75726 -3.36263,-2.79048 -1.76459,-2.78797 -0.69284,-5.96886 1.0774,-3.20604 4.60472,-5.43859 2.04862,-1.29664 3.98553,-1.50861 1.94257,-0.23712 4.04757,0.56636 l -1.12399,4.52994 q -1.13225,-0.66408 -2.28164,-0.60537 -1.14375,0.0335 -2.32979,0.78423 -1.43249,0.90667 -1.85226,2.18632 -0.42952,1.26425 0.29191,2.40408 1.1309,1.78677 5.54793,1.06216 0.87838,-0.14605 1.35529,-0.21059 3.69366,-0.50407 6.1077,0.27639 2.42944,0.77072 3.76507,2.88095 2.00832,3.17305 1.03562,6.44226 -0.96705,3.24406 -4.61759,5.55461 -2.58773,1.63785 -5.00156,1.91436 -2.41383,0.27652 -4.38527,-0.82723 z"
       style="font-style:normal;font-variant:normal;font-weight:normal;font-stretch:normal;font-size:37.33333206px;font-family:'Futura Hv BT';-inkscape-font-specification:'Futura Hv BT';letter-spacing:6px;fill:#ffffff;fill-opacity:1"
       id="path871" /><path
       d="m 284.87085,293.91964 14.33717,16.47323 -4.31769,3.75782 -14.33717,-16.47323 -4.92272,4.2844 -3.18338,-3.65767 14.19063,-12.35055 3.18338,3.65766 z"
       style="font-style:normal;font-variant:normal;font-weight:normal;font-stretch:normal;font-size:37.33333206px;font-family:'Futura Hv BT';-inkscape-font-specification:'Futura Hv BT';letter-spacing:6px;fill:#ffffff;fill-opacity:1"
       id="path873" /><path
       d="m 310.55797,283.47567 -8.55569,-3.17546 q -0.37659,-0.14494 -1.22162,-0.58135 -0.84503,-0.43641 -2.02524,-1.12535 0.84822,1.00589 1.51105,1.83544 0.64878,0.81795 0.84654,1.12261 l 4.7388,7.63615 z m -2.96682,19.56886 -14.14066,-24.80647 4.14976,-5.03673 27.14635,9.02096 -4.12658,5.00859 -5.75488,-1.93074 -6.57239,7.97717 3.19315,5.04001 z"
       style="font-style:normal;font-variant:normal;font-weight:normal;font-stretch:normal;font-size:37.33333206px;font-family:'Futura Hv BT';-inkscape-font-specification:'Futura Hv BT';letter-spacing:6px;fill:#ffffff;fill-opacity:1"
       id="path875" /></g><g
     transform="matrix(0.50135579,0,0,0.50135579,434.28557,90.918794)"
     id="g1012"
     style="stroke-width:1.99459147"><g
       id="g2494"
       style="stroke-width:1.99459147"><path
         inkscape:connector-curvature="0"
         style="opacity:1;fill:#231f20;fill-opacity:1;fill-rule:nonzero;stroke:none;stroke-width:1.99459147;stroke-linecap:butt;stroke-linejoin:round;stroke-miterlimit:4;stroke-dasharray:none;stroke-dashoffset:0;stroke-opacity:1"
         d="M -34.791016,-401.15039 A 154.57791,218.06226 0 0 0 -189.36914,-183.08789 154.57791,218.06226 0 0 0 -73.185547,27.861328 C -75.634828,22.392091 -77.910171,16.342502 -79.855469,9.6679688 -91.878829,-31.585511 -91.071692,-95.673716 -46.039062,-188.54102 c 43.1313695,-88.94645 42.3242801,-145.93695 32.30664,-180.30859 -4.122572,-14.14501 -9.850561,-24.52197 -15.082031,-31.87891 a 154.57791,218.06226 0 0 0 -5.976563,-0.42187 z"
         transform="translate(-464.33041,367.05613)"
         id="path1020" /><path
         inkscape:connector-curvature="0"
         style="opacity:1;fill:#ed1c24;fill-opacity:1;fill-rule:nonzero;stroke:none;stroke-width:1.99459147;stroke-linecap:butt;stroke-linejoin:round;stroke-miterlimit:4;stroke-dasharray:none;stroke-dashoffset:0;stroke-opacity:1"
         d="m 3.5996094,-394.03516 c 2.4487236,5.46881 4.7248178,11.51754 6.6699216,18.19141 12.02336,41.25348 11.218177,105.34363 -33.814453,198.21094 -43.13137,88.946457 -42.326244,145.934998 -32.308594,180.3066381 4.122502,14.1447639 9.850639,24.5219929 15.082032,31.8789059 a 154.57791,218.06226 0 0 0 5.980468,0.421875 A 154.57791,218.06226 0 0 0 119.78516,-183.08789 154.57791,218.06226 0 0 0 3.5996094,-394.03516 Z"
         transform="translate(-464.33041,367.05613)"
         id="ellipse1008" /></g></g></svg>